<?xml version="1.0" encoding="UTF-8" standalone="no"?>
<!DOCTYPE svg PUBLIC "-//W3C//DTD SVG 1.1//EN"
 "http://www.w3.org/Graphics/SVG/1.1/DTD/svg11.dtd">
<!-- Generated by graphviz version 2.43.0 (0)
 -->
<!-- Title: %3 Pages: 1 -->
<svg width="353pt" height="350pt"
 viewBox="0.00 0.00 352.99 350.00" xmlns="http://www.w3.org/2000/svg" xmlns:xlink="http://www.w3.org/1999/xlink">
<g id="graph0" class="graph" transform="scale(1 1) rotate(0) translate(4 346)">
<title>%3</title>
<polygon fill="white" stroke="transparent" points="-4,4 -4,-346 348.99,-346 348.99,4 -4,4"/>
<!-- Data -->
<g id="node1" class="node">
<title>Data</title>
<ellipse fill="white" stroke="navy" cx="32.5" cy="-324" rx="32.49" ry="18"/>
<text text-anchor="middle" x="32.5" y="-320.3" font-family="Times,serif" font-size="14.00">Data</text>
</g>
<!-- LLM -->
<g id="node5" class="node">
<title>LLM</title>
<path fill="white" stroke="navy" d="M257,-269C257,-269 66,-269 66,-269 60,-269 54,-263 54,-257 54,-257 54,-243 54,-243 54,-237 60,-231 66,-231 66,-231 257,-231 257,-231 263,-231 269,-237 269,-243 269,-243 269,-257 269,-257 269,-263 263,-269 257,-269"/>
<text text-anchor="middle" x="161.5" y="-253.8" font-family="Times,serif" font-size="14.00">LLM&#45;Based Code Generator</text>
<text text-anchor="middle" x="161.5" y="-238.8" font-family="Times,serif" font-size="14.00">📝</text>
</g>
<!-- Data&#45;&gt;LLM -->
<g id="edge4" class="edge">
<title>Data&#45;&gt;LLM</title>
<path fill="none" stroke="black" d="M54.67,-310.62C72.57,-300.63 98.26,-286.29 119.96,-274.18"/>
<polygon fill="black" stroke="black" points="121.96,-277.08 128.98,-269.15 118.55,-270.96 121.96,-277.08"/>
</g>
<!-- Logic -->
<g id="node2" class="node">
<title>Logic</title>
<ellipse fill="white" stroke="navy" cx="118.5" cy="-324" rx="36" ry="18"/>
<text text-anchor="middle" x="118.5" y="-320.3" font-family="Times,serif" font-size="14.00">Logic</text>
</g>
<!-- Logic&#45;&gt;LLM -->
<g id="edge5" class="edge">
<title>Logic&#45;&gt;LLM</title>
<path fill="none" stroke="black" d="M128.25,-306.66C133.32,-298.17 139.65,-287.58 145.42,-277.92"/>
<polygon fill="black" stroke="black" points="148.6,-279.42 150.72,-269.04 142.59,-275.83 148.6,-279.42"/>
</g>
<!-- Goal -->
<g id="node3" class="node">
<title>Goal</title>
<ellipse fill="white" stroke="navy" cx="204.5" cy="-324" rx="31.7" ry="18"/>
<text text-anchor="middle" x="204.5" y="-320.3" font-family="Times,serif" font-size="14.00">Goal</text>
</g>
<!-- Goal&#45;&gt;LLM -->
<g id="edge6" class="edge">
<title>Goal&#45;&gt;LLM</title>
<path fill="none" stroke="black" d="M194.74,-306.66C189.67,-298.17 183.34,-287.58 177.57,-277.92"/>
<polygon fill="black" stroke="black" points="180.4,-275.83 172.27,-269.04 174.39,-279.42 180.4,-275.83"/>
</g>
<!-- Prompt -->
<g id="node4" class="node">
<title>Prompt</title>
<ellipse fill="white" stroke="navy" cx="299.5" cy="-324" rx="45.49" ry="18"/>
<text text-anchor="middle" x="299.5" y="-320.3" font-family="Times,serif" font-size="14.00">Prompt</text>
</g>
<!-- Prompt&#45;&gt;LLM -->
<g id="edge7" class="edge">
<title>Prompt&#45;&gt;LLM</title>
<path fill="none" stroke="black" d="M273.22,-309.29C253.97,-299.25 227.42,-285.39 205.02,-273.71"/>
<polygon fill="black" stroke="black" points="206.52,-270.54 196.04,-269.02 203.28,-276.75 206.52,-270.54"/>
</g>
<!-- PythonProgram -->
<g id="node6" class="node">
<title>PythonProgram</title>
<path fill="white" stroke="navy" d="M216.5,-184C216.5,-184 106.5,-184 106.5,-184 100.5,-184 94.5,-178 94.5,-172 94.5,-172 94.5,-158 94.5,-158 94.5,-152 100.5,-146 106.5,-146 106.5,-146 216.5,-146 216.5,-146 222.5,-146 228.5,-152 228.5,-158 228.5,-158 228.5,-172 228.5,-172 228.5,-178 222.5,-184 216.5,-184"/>
<text text-anchor="middle" x="161.5" y="-168.8" font-family="Times,serif" font-size="14.00">Python Program</text>
<text text-anchor="middle" x="161.5" y="-153.8" font-family="Times,serif" font-size="14.00">🐍</text>
</g>
<!-- LLM&#45;&gt;PythonProgram -->
<g id="edge8" class="edge">
<title>LLM&#45;&gt;PythonProgram</title>
<path fill="none" stroke="black" d="M161.5,-230.99C161.5,-220.3 161.5,-206.5 161.5,-194.37"/>
<polygon fill="black" stroke="black" points="165,-194.26 161.5,-184.26 158,-194.26 165,-194.26"/>
<text text-anchor="middle" x="205.5" y="-205" font-family="Times,serif" font-size="10.00">Synthesizes code</text>
</g>
<!-- Insights -->
<g id="node7" class="node">
<title>Insights</title>
<path fill="white" stroke="navy" d="M214,-109C214,-109 109,-109 109,-109 103,-109 97,-103 97,-97 97,-97 97,-85 97,-85 97,-79 103,-73 109,-73 109,-73 214,-73 214,-73 220,-73 226,-79 226,-85 226,-85 226,-97 226,-97 226,-103 220,-109 214,-109"/>
<text text-anchor="middle" x="161.5" y="-87.3" font-family="Times,serif" font-size="14.00">Insights Output</text>
</g>
<!-- PythonProgram&#45;&gt;Insights -->
<g id="edge9" class="edge">
<title>PythonProgram&#45;&gt;Insights</title>
<path fill="none" stroke="black" d="M161.5,-145.83C161.5,-137.89 161.5,-128.41 161.5,-119.63"/>
<polygon fill="black" stroke="black" points="165,-119.42 161.5,-109.42 158,-119.42 165,-119.42"/>
</g>
<!-- Answer -->
<g id="node8" class="node">
<title>Answer</title>
<path fill="none" stroke="navy" d="M85.5,-36C85.5,-36 39.5,-36 39.5,-36 33.5,-36 27.5,-30 27.5,-24 27.5,-24 27.5,-12 27.5,-12 27.5,-6 33.5,0 39.5,0 39.5,0 85.5,0 85.5,0 91.5,0 97.5,-6 97.5,-12 97.5,-12 97.5,-24 97.5,-24 97.5,-30 91.5,-36 85.5,-36"/>
<text text-anchor="middle" x="62.5" y="-14.3" font-family="Times,serif" font-size="14.00">Answer</text>
</g>
<!-- Insights&#45;&gt;Answer -->
<g id="edge1" class="edge">
<title>Insights&#45;&gt;Answer</title>
<path fill="none" stroke="black" d="M137.78,-72.99C124.9,-63.75 108.78,-52.19 94.77,-42.14"/>
<polygon fill="black" stroke="black" points="96.53,-39.1 86.36,-36.11 92.45,-44.79 96.53,-39.1"/>
</g>
<!-- Reasoning -->
<g id="node9" class="node">
<title>Reasoning</title>
<path fill="none" stroke="navy" d="M195,-36C195,-36 128,-36 128,-36 122,-36 116,-30 116,-24 116,-24 116,-12 116,-12 116,-6 122,0 128,0 128,0 195,0 195,0 201,0 207,-6 207,-12 207,-12 207,-24 207,-24 207,-30 201,-36 195,-36"/>
<text text-anchor="middle" x="161.5" y="-14.3" font-family="Times,serif" font-size="14.00">Reasoning</text>
</g>
<!-- Insights&#45;&gt;Reasoning -->
<g id="edge2" class="edge">
<title>Insights&#45;&gt;Reasoning</title>
<path fill="none" stroke="black" d="M161.5,-72.81C161.5,-64.79 161.5,-55.05 161.5,-46.07"/>
<polygon fill="black" stroke="black" points="165,-46.03 161.5,-36.03 158,-46.03 165,-46.03"/>
</g>
<!-- Check -->
<g id="node10" class="node">
<title>Check</title>
<path fill="none" stroke="navy" d="M273.5,-36C273.5,-36 237.5,-36 237.5,-36 231.5,-36 225.5,-30 225.5,-24 225.5,-24 225.5,-12 225.5,-12 225.5,-6 231.5,0 237.5,0 237.5,0 273.5,0 273.5,0 279.5,0 285.5,-6 285.5,-12 285.5,-12 285.5,-24 285.5,-24 285.5,-30 279.5,-36 273.5,-36"/>
<text text-anchor="middle" x="255.5" y="-14.3" font-family="Times,serif" font-size="14.00">Check</text>
</g>
<!-- Insights&#45;&gt;Check -->
<g id="edge3" class="edge">
<title>Insights&#45;&gt;Check</title>
<path fill="none" stroke="black" d="M184.25,-72.81C196.38,-63.66 211.46,-52.26 224.63,-42.32"/>
<polygon fill="black" stroke="black" points="227.08,-44.85 232.95,-36.03 222.86,-39.26 227.08,-44.85"/>
</g>
</g>
</svg>
