<?xml version="1.0" encoding="UTF-8" standalone="no"?>
<!DOCTYPE svg PUBLIC "-//W3C//DTD SVG 1.1//EN"
 "http://www.w3.org/Graphics/SVG/1.1/DTD/svg11.dtd">
<!-- Generated by graphviz version 2.43.0 (0)
 -->
<!-- Title: %3 Pages: 1 -->
<svg width="334pt" height="332pt"
 viewBox="0.00 0.00 334.00 332.00" xmlns="http://www.w3.org/2000/svg" xmlns:xlink="http://www.w3.org/1999/xlink">
<g id="graph0" class="graph" transform="scale(1 1) rotate(0) translate(4 328)">
<title>%3</title>
<polygon fill="white" stroke="transparent" points="-4,4 -4,-328 330,-328 330,4 -4,4"/>
<!-- Data -->
<g id="node1" class="node">
<title>Data</title>
<path fill="#ffffe8" stroke="navy" d="M80,-324C80,-324 12,-324 12,-324 6,-324 0,-318 0,-312 0,-312 0,-300 0,-300 0,-294 6,-288 12,-288 12,-288 80,-288 80,-288 86,-288 92,-294 92,-300 92,-300 92,-312 92,-312 92,-318 86,-324 80,-324"/>
<text text-anchor="middle" x="46" y="-302.3" font-family="Times,serif" font-size="14.00">Data (raw)</text>
</g>
<!-- LLM -->
<g id="node5" class="node">
<title>LLM</title>
<path fill="#ffffe8" stroke="navy" d="M269.5,-252C269.5,-252 78.5,-252 78.5,-252 72.5,-252 66.5,-246 66.5,-240 66.5,-240 66.5,-228 66.5,-228 66.5,-222 72.5,-216 78.5,-216 78.5,-216 269.5,-216 269.5,-216 275.5,-216 281.5,-222 281.5,-228 281.5,-228 281.5,-240 281.5,-240 281.5,-246 275.5,-252 269.5,-252"/>
<text text-anchor="middle" x="174" y="-230.3" font-family="Times,serif" font-size="14.00">LLM&#45;Based Code Generator</text>
</g>
<!-- Data&#45;&gt;LLM -->
<g id="edge4" class="edge">
<title>Data&#45;&gt;LLM</title>
<path fill="none" stroke="black" d="M77.31,-287.88C94.2,-278.64 115.25,-267.13 133.38,-257.21"/>
<polygon fill="black" stroke="black" points="135.47,-260.06 142.57,-252.19 132.11,-253.92 135.47,-260.06"/>
</g>
<!-- Logic -->
<g id="node2" class="node">
<title>Logic</title>
<path fill="#ffffe8" stroke="navy" d="M153.5,-324C153.5,-324 122.5,-324 122.5,-324 116.5,-324 110.5,-318 110.5,-312 110.5,-312 110.5,-300 110.5,-300 110.5,-294 116.5,-288 122.5,-288 122.5,-288 153.5,-288 153.5,-288 159.5,-288 165.5,-294 165.5,-300 165.5,-300 165.5,-312 165.5,-312 165.5,-318 159.5,-324 153.5,-324"/>
<text text-anchor="middle" x="138" y="-302.3" font-family="Times,serif" font-size="14.00">Logic</text>
</g>
<!-- Logic&#45;&gt;LLM -->
<g id="edge5" class="edge">
<title>Logic&#45;&gt;LLM</title>
<path fill="none" stroke="black" d="M146.9,-287.7C151,-279.73 155.95,-270.1 160.49,-261.26"/>
<polygon fill="black" stroke="black" points="163.74,-262.6 165.2,-252.1 157.52,-259.4 163.74,-262.6"/>
</g>
<!-- Goal -->
<g id="node3" class="node">
<title>Goal</title>
<path fill="#ffffe8" stroke="navy" d="M226,-324C226,-324 196,-324 196,-324 190,-324 184,-318 184,-312 184,-312 184,-300 184,-300 184,-294 190,-288 196,-288 196,-288 226,-288 226,-288 232,-288 238,-294 238,-300 238,-300 238,-312 238,-312 238,-318 232,-324 226,-324"/>
<text text-anchor="middle" x="211" y="-302.3" font-family="Times,serif" font-size="14.00">Goal</text>
</g>
<!-- Goal&#45;&gt;LLM -->
<g id="edge6" class="edge">
<title>Goal&#45;&gt;LLM</title>
<path fill="none" stroke="black" d="M201.85,-287.7C197.6,-279.64 192.44,-269.89 187.73,-260.98"/>
<polygon fill="black" stroke="black" points="190.81,-259.31 183.04,-252.1 184.62,-262.58 190.81,-259.31"/>
</g>
<!-- Prompt -->
<g id="node4" class="node">
<title>Prompt</title>
<path fill="#ffffe8" stroke="navy" d="M314,-324C314,-324 268,-324 268,-324 262,-324 256,-318 256,-312 256,-312 256,-300 256,-300 256,-294 262,-288 268,-288 268,-288 314,-288 314,-288 320,-288 326,-294 326,-300 326,-300 326,-312 326,-312 326,-318 320,-324 314,-324"/>
<text text-anchor="middle" x="291" y="-302.3" font-family="Times,serif" font-size="14.00">Prompt</text>
</g>
<!-- Prompt&#45;&gt;LLM -->
<g id="edge7" class="edge">
<title>Prompt&#45;&gt;LLM</title>
<path fill="none" stroke="black" d="M262.38,-287.88C247.08,-278.72 228.06,-267.34 211.58,-257.48"/>
<polygon fill="black" stroke="black" points="213.11,-254.32 202.73,-252.19 209.52,-260.33 213.11,-254.32"/>
</g>
<!-- PythonProgram -->
<g id="node6" class="node">
<title>PythonProgram</title>
<path fill="#ffffe8" stroke="navy" d="M229,-180C229,-180 119,-180 119,-180 113,-180 107,-174 107,-168 107,-168 107,-156 107,-156 107,-150 113,-144 119,-144 119,-144 229,-144 229,-144 235,-144 241,-150 241,-156 241,-156 241,-168 241,-168 241,-174 235,-180 229,-180"/>
<text text-anchor="middle" x="174" y="-158.3" font-family="Times,serif" font-size="14.00">Python Program</text>
</g>
<!-- LLM&#45;&gt;PythonProgram -->
<g id="edge8" class="edge">
<title>LLM&#45;&gt;PythonProgram</title>
<path fill="none" stroke="black" d="M174,-215.7C174,-207.98 174,-198.71 174,-190.11"/>
<polygon fill="black" stroke="black" points="177.5,-190.1 174,-180.1 170.5,-190.1 177.5,-190.1"/>
</g>
<!-- Insights -->
<g id="node7" class="node">
<title>Insights</title>
<path fill="#ffffe8" stroke="navy" d="M226.5,-108C226.5,-108 121.5,-108 121.5,-108 115.5,-108 109.5,-102 109.5,-96 109.5,-96 109.5,-84 109.5,-84 109.5,-78 115.5,-72 121.5,-72 121.5,-72 226.5,-72 226.5,-72 232.5,-72 238.5,-78 238.5,-84 238.5,-84 238.5,-96 238.5,-96 238.5,-102 232.5,-108 226.5,-108"/>
<text text-anchor="middle" x="174" y="-86.3" font-family="Times,serif" font-size="14.00">Insights Output</text>
</g>
<!-- PythonProgram&#45;&gt;Insights -->
<g id="edge9" class="edge">
<title>PythonProgram&#45;&gt;Insights</title>
<path fill="none" stroke="black" d="M174,-143.7C174,-135.98 174,-126.71 174,-118.11"/>
<polygon fill="black" stroke="black" points="177.5,-118.1 174,-108.1 170.5,-118.1 177.5,-118.1"/>
</g>
<!-- Answer -->
<g id="node8" class="node">
<title>Answer</title>
<path fill="#ffffe8" stroke="navy" d="M93,-36C93,-36 47,-36 47,-36 41,-36 35,-30 35,-24 35,-24 35,-12 35,-12 35,-6 41,0 47,0 47,0 93,0 93,0 99,0 105,-6 105,-12 105,-12 105,-24 105,-24 105,-30 99,-36 93,-36"/>
<text text-anchor="middle" x="70" y="-14.3" font-family="Times,serif" font-size="14.00">Answer</text>
</g>
<!-- Insights&#45;&gt;Answer -->
<g id="edge1" class="edge">
<title>Insights&#45;&gt;Answer</title>
<path fill="none" stroke="black" d="M148.56,-71.88C135.21,-62.89 118.68,-51.76 104.22,-42.03"/>
<polygon fill="black" stroke="black" points="105.79,-38.87 95.54,-36.19 101.88,-44.68 105.79,-38.87"/>
</g>
<!-- Reason -->
<g id="node9" class="node">
<title>Reason</title>
<path fill="#ffffe8" stroke="navy" d="M213,-36C213,-36 135,-36 135,-36 129,-36 123,-30 123,-24 123,-24 123,-12 123,-12 123,-6 129,0 135,0 135,0 213,0 213,0 219,0 225,-6 225,-12 225,-12 225,-24 225,-24 225,-30 219,-36 213,-36"/>
<text text-anchor="middle" x="174" y="-14.3" font-family="Times,serif" font-size="14.00">Reason why</text>
</g>
<!-- Insights&#45;&gt;Reason -->
<g id="edge2" class="edge">
<title>Insights&#45;&gt;Reason</title>
<path fill="none" stroke="black" d="M174,-71.7C174,-63.98 174,-54.71 174,-46.11"/>
<polygon fill="black" stroke="black" points="177.5,-46.1 174,-36.1 170.5,-46.1 177.5,-46.1"/>
</g>
<!-- Check -->
<g id="node10" class="node">
<title>Check</title>
<path fill="#ffffe8" stroke="navy" d="M291,-36C291,-36 255,-36 255,-36 249,-36 243,-30 243,-24 243,-24 243,-12 243,-12 243,-6 249,0 255,0 255,0 291,0 291,0 297,0 303,-6 303,-12 303,-12 303,-24 303,-24 303,-30 297,-36 291,-36"/>
<text text-anchor="middle" x="273" y="-14.3" font-family="Times,serif" font-size="14.00">Check</text>
</g>
<!-- Insights&#45;&gt;Check -->
<g id="edge3" class="edge">
<title>Insights&#45;&gt;Check</title>
<path fill="none" stroke="black" d="M198.22,-71.88C210.92,-62.89 226.66,-51.76 240.42,-42.03"/>
<polygon fill="black" stroke="black" points="242.54,-44.82 248.69,-36.19 238.5,-39.11 242.54,-44.82"/>
</g>
</g>
</svg>
