<?xml version="1.0" encoding="UTF-8" standalone="no"?>
<!DOCTYPE svg PUBLIC "-//W3C//DTD SVG 1.1//EN"
 "http://www.w3.org/Graphics/SVG/1.1/DTD/svg11.dtd">
<!-- Generated by graphviz version 2.43.0 (0)
 -->
<!-- Title: %3 Pages: 1 -->
<svg width="278pt" height="260pt"
 viewBox="0.00 0.00 278.00 260.00" xmlns="http://www.w3.org/2000/svg" xmlns:xlink="http://www.w3.org/1999/xlink">
<g id="graph0" class="graph" transform="scale(1 1) rotate(0) translate(4 256)">
<title>%3</title>
<polygon fill="white" stroke="transparent" points="-4,4 -4,-256 274,-256 274,4 -4,4"/>
<!-- Data -->
<g id="node1" class="node">
<title>Data</title>
<path fill="yellow" stroke="navy" d="M82,-252C82,-252 52,-252 52,-252 46,-252 40,-246 40,-240 40,-240 40,-228 40,-228 40,-222 46,-216 52,-216 52,-216 82,-216 82,-216 88,-216 94,-222 94,-228 94,-228 94,-240 94,-240 94,-246 88,-252 82,-252"/>
<text text-anchor="middle" x="67" y="-230.3" font-family="Times,serif" font-size="14.00">Data</text>
</g>
<!-- LLM -->
<g id="node4" class="node">
<title>LLM</title>
<path fill="yellow" stroke="navy" d="M235.5,-180C235.5,-180 44.5,-180 44.5,-180 38.5,-180 32.5,-174 32.5,-168 32.5,-168 32.5,-156 32.5,-156 32.5,-150 38.5,-144 44.5,-144 44.5,-144 235.5,-144 235.5,-144 241.5,-144 247.5,-150 247.5,-156 247.5,-156 247.5,-168 247.5,-168 247.5,-174 241.5,-180 235.5,-180"/>
<text text-anchor="middle" x="140" y="-158.3" font-family="Times,serif" font-size="14.00">LLM&#45;Based Code Generator</text>
</g>
<!-- Data&#45;&gt;LLM -->
<g id="edge4" class="edge">
<title>Data&#45;&gt;LLM</title>
<path fill="none" stroke="black" d="M85.04,-215.7C94.06,-207.05 105.12,-196.45 114.94,-187.03"/>
<polygon fill="black" stroke="black" points="117.37,-189.55 122.16,-180.1 112.52,-184.5 117.37,-189.55"/>
</g>
<!-- Logic -->
<g id="node2" class="node">
<title>Logic</title>
<path fill="yellow" stroke="navy" d="M155.5,-252C155.5,-252 124.5,-252 124.5,-252 118.5,-252 112.5,-246 112.5,-240 112.5,-240 112.5,-228 112.5,-228 112.5,-222 118.5,-216 124.5,-216 124.5,-216 155.5,-216 155.5,-216 161.5,-216 167.5,-222 167.5,-228 167.5,-228 167.5,-240 167.5,-240 167.5,-246 161.5,-252 155.5,-252"/>
<text text-anchor="middle" x="140" y="-230.3" font-family="Times,serif" font-size="14.00">Logic</text>
</g>
<!-- Logic&#45;&gt;LLM -->
<g id="edge5" class="edge">
<title>Logic&#45;&gt;LLM</title>
<path fill="none" stroke="black" d="M140,-215.7C140,-207.98 140,-198.71 140,-190.11"/>
<polygon fill="black" stroke="black" points="143.5,-190.1 140,-180.1 136.5,-190.1 143.5,-190.1"/>
</g>
<!-- Goal -->
<g id="node3" class="node">
<title>Goal</title>
<path fill="yellow" stroke="navy" d="M228,-252C228,-252 198,-252 198,-252 192,-252 186,-246 186,-240 186,-240 186,-228 186,-228 186,-222 192,-216 198,-216 198,-216 228,-216 228,-216 234,-216 240,-222 240,-228 240,-228 240,-240 240,-240 240,-246 234,-252 228,-252"/>
<text text-anchor="middle" x="213" y="-230.3" font-family="Times,serif" font-size="14.00">Goal</text>
</g>
<!-- Goal&#45;&gt;LLM -->
<g id="edge6" class="edge">
<title>Goal&#45;&gt;LLM</title>
<path fill="none" stroke="black" d="M194.96,-215.7C185.94,-207.05 174.88,-196.45 165.06,-187.03"/>
<polygon fill="black" stroke="black" points="167.48,-184.5 157.84,-180.1 162.63,-189.55 167.48,-184.5"/>
</g>
<!-- Python -->
<g id="node5" class="node">
<title>Python</title>
<path fill="yellow" stroke="navy" d="M247.5,-108C247.5,-108 32.5,-108 32.5,-108 26.5,-108 20.5,-102 20.5,-96 20.5,-96 20.5,-84 20.5,-84 20.5,-78 26.5,-72 32.5,-72 32.5,-72 247.5,-72 247.5,-72 253.5,-72 259.5,-78 259.5,-84 259.5,-84 259.5,-96 259.5,-96 259.5,-102 253.5,-108 247.5,-108"/>
<text text-anchor="middle" x="140" y="-86.3" font-family="Times,serif" font-size="14.00">Self&#45;contained Python Program</text>
</g>
<!-- LLM&#45;&gt;Python -->
<g id="edge7" class="edge">
<title>LLM&#45;&gt;Python</title>
<path fill="none" stroke="black" d="M140,-143.7C140,-135.98 140,-126.71 140,-118.11"/>
<polygon fill="black" stroke="black" points="143.5,-118.1 140,-108.1 136.5,-118.1 143.5,-118.1"/>
</g>
<!-- Answer -->
<g id="node6" class="node">
<title>Answer</title>
<path fill="yellow" stroke="navy" d="M58,-36C58,-36 12,-36 12,-36 6,-36 0,-30 0,-24 0,-24 0,-12 0,-12 0,-6 6,0 12,0 12,0 58,0 58,0 64,0 70,-6 70,-12 70,-12 70,-24 70,-24 70,-30 64,-36 58,-36"/>
<text text-anchor="middle" x="35" y="-14.3" font-family="Times,serif" font-size="14.00">Answer</text>
</g>
<!-- Python&#45;&gt;Answer -->
<g id="edge1" class="edge">
<title>Python&#45;&gt;Answer</title>
<path fill="none" stroke="black" d="M114.31,-71.88C100.71,-62.81 83.83,-51.55 69.14,-41.76"/>
<polygon fill="black" stroke="black" points="71.05,-38.82 60.78,-36.19 67.16,-44.65 71.05,-38.82"/>
</g>
<!-- Reason -->
<g id="node7" class="node">
<title>Reason</title>
<path fill="yellow" stroke="navy" d="M180,-36C180,-36 100,-36 100,-36 94,-36 88,-30 88,-24 88,-24 88,-12 88,-12 88,-6 94,0 100,0 100,0 180,0 180,0 186,0 192,-6 192,-12 192,-12 192,-24 192,-24 192,-30 186,-36 180,-36"/>
<text text-anchor="middle" x="140" y="-14.3" font-family="Times,serif" font-size="14.00">Reason Why</text>
</g>
<!-- Python&#45;&gt;Reason -->
<g id="edge2" class="edge">
<title>Python&#45;&gt;Reason</title>
<path fill="none" stroke="black" d="M140,-71.7C140,-63.98 140,-54.71 140,-46.11"/>
<polygon fill="black" stroke="black" points="143.5,-46.1 140,-36.1 136.5,-46.1 143.5,-46.1"/>
</g>
<!-- Check -->
<g id="node8" class="node">
<title>Check</title>
<path fill="yellow" stroke="navy" d="M258,-36C258,-36 222,-36 222,-36 216,-36 210,-30 210,-24 210,-24 210,-12 210,-12 210,-6 216,0 222,0 222,0 258,0 258,0 264,0 270,-6 270,-12 270,-12 270,-24 270,-24 270,-30 264,-36 258,-36"/>
<text text-anchor="middle" x="240" y="-14.3" font-family="Times,serif" font-size="14.00">Check</text>
</g>
<!-- Python&#45;&gt;Check -->
<g id="edge3" class="edge">
<title>Python&#45;&gt;Check</title>
<path fill="none" stroke="black" d="M164.46,-71.88C177.3,-62.89 193.2,-51.76 207.09,-42.03"/>
<polygon fill="black" stroke="black" points="209.26,-44.79 215.44,-36.19 205.24,-39.06 209.26,-44.79"/>
</g>
</g>
</svg>
