<?xml version="1.0" encoding="UTF-8" standalone="no"?>
<!DOCTYPE svg PUBLIC "-//W3C//DTD SVG 1.1//EN"
 "http://www.w3.org/Graphics/SVG/1.1/DTD/svg11.dtd">
<!-- Generated by graphviz version 2.43.0 (0)
 -->
<!-- Title: %3 Pages: 1 -->
<svg width="242pt" height="260pt"
 viewBox="0.00 0.00 242.00 260.00" xmlns="http://www.w3.org/2000/svg" xmlns:xlink="http://www.w3.org/1999/xlink">
<g id="graph0" class="graph" transform="scale(1 1) rotate(0) translate(4 256)">
<title>%3</title>
<polygon fill="white" stroke="transparent" points="-4,4 -4,-256 238,-256 238,4 -4,4"/>
<!-- Data -->
<g id="node1" class="node">
<title>Data</title>
<path fill="yellow" stroke="navy" d="M64,-252C64,-252 34,-252 34,-252 28,-252 22,-246 22,-240 22,-240 22,-228 22,-228 22,-222 28,-216 34,-216 34,-216 64,-216 64,-216 70,-216 76,-222 76,-228 76,-228 76,-240 76,-240 76,-246 70,-252 64,-252"/>
<text text-anchor="middle" x="49" y="-230.3" font-family="Times,serif" font-size="14.00">Data</text>
</g>
<!-- LLM -->
<g id="node4" class="node">
<title>LLM</title>
<path fill="yellow" stroke="navy" d="M217.5,-180C217.5,-180 26.5,-180 26.5,-180 20.5,-180 14.5,-174 14.5,-168 14.5,-168 14.5,-156 14.5,-156 14.5,-150 20.5,-144 26.5,-144 26.5,-144 217.5,-144 217.5,-144 223.5,-144 229.5,-150 229.5,-156 229.5,-156 229.5,-168 229.5,-168 229.5,-174 223.5,-180 217.5,-180"/>
<text text-anchor="middle" x="122" y="-158.3" font-family="Times,serif" font-size="14.00">LLM&#45;Based Code Generator</text>
</g>
<!-- Data&#45;&gt;LLM -->
<g id="edge4" class="edge">
<title>Data&#45;&gt;LLM</title>
<path fill="none" stroke="black" d="M67.04,-215.7C76.06,-207.05 87.12,-196.45 96.94,-187.03"/>
<polygon fill="black" stroke="black" points="99.37,-189.55 104.16,-180.1 94.52,-184.5 99.37,-189.55"/>
</g>
<!-- Logic -->
<g id="node2" class="node">
<title>Logic</title>
<path fill="yellow" stroke="navy" d="M137.5,-252C137.5,-252 106.5,-252 106.5,-252 100.5,-252 94.5,-246 94.5,-240 94.5,-240 94.5,-228 94.5,-228 94.5,-222 100.5,-216 106.5,-216 106.5,-216 137.5,-216 137.5,-216 143.5,-216 149.5,-222 149.5,-228 149.5,-228 149.5,-240 149.5,-240 149.5,-246 143.5,-252 137.5,-252"/>
<text text-anchor="middle" x="122" y="-230.3" font-family="Times,serif" font-size="14.00">Logic</text>
</g>
<!-- Logic&#45;&gt;LLM -->
<g id="edge5" class="edge">
<title>Logic&#45;&gt;LLM</title>
<path fill="none" stroke="black" d="M122,-215.7C122,-207.98 122,-198.71 122,-190.11"/>
<polygon fill="black" stroke="black" points="125.5,-190.1 122,-180.1 118.5,-190.1 125.5,-190.1"/>
</g>
<!-- Goal -->
<g id="node3" class="node">
<title>Goal</title>
<path fill="yellow" stroke="navy" d="M210,-252C210,-252 180,-252 180,-252 174,-252 168,-246 168,-240 168,-240 168,-228 168,-228 168,-222 174,-216 180,-216 180,-216 210,-216 210,-216 216,-216 222,-222 222,-228 222,-228 222,-240 222,-240 222,-246 216,-252 210,-252"/>
<text text-anchor="middle" x="195" y="-230.3" font-family="Times,serif" font-size="14.00">Goal</text>
</g>
<!-- Goal&#45;&gt;LLM -->
<g id="edge6" class="edge">
<title>Goal&#45;&gt;LLM</title>
<path fill="none" stroke="black" d="M176.96,-215.7C167.94,-207.05 156.88,-196.45 147.06,-187.03"/>
<polygon fill="black" stroke="black" points="149.48,-184.5 139.84,-180.1 144.63,-189.55 149.48,-184.5"/>
</g>
<!-- Python -->
<g id="node5" class="node">
<title>Python</title>
<path fill="yellow" stroke="navy" d="M177,-108C177,-108 67,-108 67,-108 61,-108 55,-102 55,-96 55,-96 55,-84 55,-84 55,-78 61,-72 67,-72 67,-72 177,-72 177,-72 183,-72 189,-78 189,-84 189,-84 189,-96 189,-96 189,-102 183,-108 177,-108"/>
<text text-anchor="middle" x="122" y="-86.3" font-family="Times,serif" font-size="14.00">Python Program</text>
</g>
<!-- LLM&#45;&gt;Python -->
<g id="edge7" class="edge">
<title>LLM&#45;&gt;Python</title>
<path fill="none" stroke="black" d="M122,-143.7C122,-135.98 122,-126.71 122,-118.11"/>
<polygon fill="black" stroke="black" points="125.5,-118.1 122,-108.1 118.5,-118.1 125.5,-118.1"/>
</g>
<!-- Answer -->
<g id="node6" class="node">
<title>Answer</title>
<path fill="yellow" stroke="navy" d="M58,-36C58,-36 12,-36 12,-36 6,-36 0,-30 0,-24 0,-24 0,-12 0,-12 0,-6 6,0 12,0 12,0 58,0 58,0 64,0 70,-6 70,-12 70,-12 70,-24 70,-24 70,-30 64,-36 58,-36"/>
<text text-anchor="middle" x="35" y="-14.3" font-family="Times,serif" font-size="14.00">Answer</text>
</g>
<!-- Python&#45;&gt;Answer -->
<g id="edge1" class="edge">
<title>Python&#45;&gt;Answer</title>
<path fill="none" stroke="black" d="M100.49,-71.7C89.54,-62.88 76.05,-52.03 64.18,-42.47"/>
<polygon fill="black" stroke="black" points="66.24,-39.65 56.26,-36.1 61.86,-45.1 66.24,-39.65"/>
</g>
<!-- Reason -->
<g id="node7" class="node">
<title>Reason</title>
<path fill="yellow" stroke="navy" d="M144,-36C144,-36 100,-36 100,-36 94,-36 88,-30 88,-24 88,-24 88,-12 88,-12 88,-6 94,0 100,0 100,0 144,0 144,0 150,0 156,-6 156,-12 156,-12 156,-24 156,-24 156,-30 150,-36 144,-36"/>
<text text-anchor="middle" x="122" y="-14.3" font-family="Times,serif" font-size="14.00">Reason</text>
</g>
<!-- Python&#45;&gt;Reason -->
<g id="edge2" class="edge">
<title>Python&#45;&gt;Reason</title>
<path fill="none" stroke="black" d="M122,-71.7C122,-63.98 122,-54.71 122,-46.11"/>
<polygon fill="black" stroke="black" points="125.5,-46.1 122,-36.1 118.5,-46.1 125.5,-46.1"/>
</g>
<!-- Check -->
<g id="node8" class="node">
<title>Check</title>
<path fill="yellow" stroke="navy" d="M222,-36C222,-36 186,-36 186,-36 180,-36 174,-30 174,-24 174,-24 174,-12 174,-12 174,-6 180,0 186,0 186,0 222,0 222,0 228,0 234,-6 234,-12 234,-12 234,-24 234,-24 234,-30 228,-36 222,-36"/>
<text text-anchor="middle" x="204" y="-14.3" font-family="Times,serif" font-size="14.00">Check</text>
</g>
<!-- Python&#45;&gt;Check -->
<g id="edge3" class="edge">
<title>Python&#45;&gt;Check</title>
<path fill="none" stroke="black" d="M142.27,-71.7C152.5,-62.97 165.06,-52.24 176.18,-42.75"/>
<polygon fill="black" stroke="black" points="178.63,-45.26 183.96,-36.1 174.09,-39.94 178.63,-45.26"/>
</g>
</g>
</svg>
