<?xml version="1.0" encoding="UTF-8" standalone="no"?>
<!DOCTYPE svg PUBLIC "-//W3C//DTD SVG 1.1//EN"
 "http://www.w3.org/Graphics/SVG/1.1/DTD/svg11.dtd">
<!-- Generated by graphviz version 2.43.0 (0)
 -->
<!-- Title: %3 Pages: 1 -->
<svg width="328pt" height="332pt"
 viewBox="0.00 0.00 328.00 332.00" xmlns="http://www.w3.org/2000/svg" xmlns:xlink="http://www.w3.org/1999/xlink">
<g id="graph0" class="graph" transform="scale(1 1) rotate(0) translate(4 328)">
<title>%3</title>
<polygon fill="white" stroke="transparent" points="-4,4 -4,-328 324,-328 324,4 -4,4"/>
<!-- Data -->
<g id="node1" class="node">
<title>Data</title>
<path fill="#ffff00" stroke="navy" d="M65,-324C65,-324 12,-324 12,-324 6,-324 0,-318 0,-312 0,-312 0,-300 0,-300 0,-294 6,-288 12,-288 12,-288 65,-288 65,-288 71,-288 77,-294 77,-300 77,-300 77,-312 77,-312 77,-318 71,-324 65,-324"/>
<text text-anchor="middle" x="38.5" y="-302.3" font-family="Times,serif" font-size="14.00"> &#160;&#160;Data &#160;&#160;</text>
</g>
<!-- LLM -->
<g id="node5" class="node">
<title>LLM</title>
<path fill="#ffff00" stroke="navy" d="M254,-252C254,-252 63,-252 63,-252 57,-252 51,-246 51,-240 51,-240 51,-228 51,-228 51,-222 57,-216 63,-216 63,-216 254,-216 254,-216 260,-216 266,-222 266,-228 266,-228 266,-240 266,-240 266,-246 260,-252 254,-252"/>
<text text-anchor="middle" x="158.5" y="-230.3" font-family="Times,serif" font-size="14.00">LLM&#45;Based Code Generator</text>
</g>
<!-- Data&#45;&gt;LLM -->
<g id="edge4" class="edge">
<title>Data&#45;&gt;LLM</title>
<path fill="none" stroke="black" d="M67.86,-287.88C83.55,-278.72 103.06,-267.34 119.95,-257.48"/>
<polygon fill="black" stroke="black" points="122.16,-260.25 129.03,-252.19 118.63,-254.21 122.16,-260.25"/>
</g>
<!-- Logic -->
<g id="node2" class="node">
<title>Logic</title>
<path fill="#ffff00" stroke="navy" d="M138,-324C138,-324 107,-324 107,-324 101,-324 95,-318 95,-312 95,-312 95,-300 95,-300 95,-294 101,-288 107,-288 107,-288 138,-288 138,-288 144,-288 150,-294 150,-300 150,-300 150,-312 150,-312 150,-318 144,-324 138,-324"/>
<text text-anchor="middle" x="122.5" y="-302.3" font-family="Times,serif" font-size="14.00">Logic</text>
</g>
<!-- Logic&#45;&gt;LLM -->
<g id="edge5" class="edge">
<title>Logic&#45;&gt;LLM</title>
<path fill="none" stroke="black" d="M131.4,-287.7C135.5,-279.73 140.45,-270.1 144.99,-261.26"/>
<polygon fill="black" stroke="black" points="148.24,-262.6 149.7,-252.1 142.02,-259.4 148.24,-262.6"/>
</g>
<!-- Goal -->
<g id="node3" class="node">
<title>Goal</title>
<path fill="#ffff00" stroke="navy" d="M210.5,-324C210.5,-324 180.5,-324 180.5,-324 174.5,-324 168.5,-318 168.5,-312 168.5,-312 168.5,-300 168.5,-300 168.5,-294 174.5,-288 180.5,-288 180.5,-288 210.5,-288 210.5,-288 216.5,-288 222.5,-294 222.5,-300 222.5,-300 222.5,-312 222.5,-312 222.5,-318 216.5,-324 210.5,-324"/>
<text text-anchor="middle" x="195.5" y="-302.3" font-family="Times,serif" font-size="14.00">Goal</text>
</g>
<!-- Goal&#45;&gt;LLM -->
<g id="edge6" class="edge">
<title>Goal&#45;&gt;LLM</title>
<path fill="none" stroke="black" d="M186.35,-287.7C182.1,-279.64 176.94,-269.89 172.23,-260.98"/>
<polygon fill="black" stroke="black" points="175.31,-259.31 167.54,-252.1 169.12,-262.58 175.31,-259.31"/>
</g>
<!-- Prompt -->
<g id="node4" class="node">
<title>Prompt</title>
<path fill="#ffff00" stroke="navy" d="M308,-324C308,-324 253,-324 253,-324 247,-324 241,-318 241,-312 241,-312 241,-300 241,-300 241,-294 247,-288 253,-288 253,-288 308,-288 308,-288 314,-288 320,-294 320,-300 320,-300 320,-312 320,-312 320,-318 314,-324 308,-324"/>
<text text-anchor="middle" x="280.5" y="-302.3" font-family="Times,serif" font-size="14.00"> Prompt </text>
</g>
<!-- Prompt&#45;&gt;LLM -->
<g id="edge7" class="edge">
<title>Prompt&#45;&gt;LLM</title>
<path fill="none" stroke="black" d="M250.66,-287.88C234.56,-278.64 214.5,-267.13 197.21,-257.21"/>
<polygon fill="black" stroke="black" points="198.87,-254.13 188.46,-252.19 195.39,-260.2 198.87,-254.13"/>
</g>
<!-- PythonProgram -->
<g id="node6" class="node">
<title>PythonProgram</title>
<path fill="#ffff00" stroke="navy" d="M213.5,-180C213.5,-180 103.5,-180 103.5,-180 97.5,-180 91.5,-174 91.5,-168 91.5,-168 91.5,-156 91.5,-156 91.5,-150 97.5,-144 103.5,-144 103.5,-144 213.5,-144 213.5,-144 219.5,-144 225.5,-150 225.5,-156 225.5,-156 225.5,-168 225.5,-168 225.5,-174 219.5,-180 213.5,-180"/>
<text text-anchor="middle" x="158.5" y="-158.3" font-family="Times,serif" font-size="14.00">Python Program</text>
</g>
<!-- LLM&#45;&gt;PythonProgram -->
<g id="edge8" class="edge">
<title>LLM&#45;&gt;PythonProgram</title>
<path fill="none" stroke="black" d="M158.5,-215.7C158.5,-207.98 158.5,-198.71 158.5,-190.11"/>
<polygon fill="black" stroke="black" points="162,-190.1 158.5,-180.1 155,-190.1 162,-190.1"/>
</g>
<!-- Insights -->
<g id="node7" class="node">
<title>Insights</title>
<path fill="#ffff00" stroke="navy" d="M211,-108C211,-108 106,-108 106,-108 100,-108 94,-102 94,-96 94,-96 94,-84 94,-84 94,-78 100,-72 106,-72 106,-72 211,-72 211,-72 217,-72 223,-78 223,-84 223,-84 223,-96 223,-96 223,-102 217,-108 211,-108"/>
<text text-anchor="middle" x="158.5" y="-86.3" font-family="Times,serif" font-size="14.00">Insights Output</text>
</g>
<!-- PythonProgram&#45;&gt;Insights -->
<g id="edge9" class="edge">
<title>PythonProgram&#45;&gt;Insights</title>
<path fill="none" stroke="black" d="M158.5,-143.7C158.5,-135.98 158.5,-126.71 158.5,-118.11"/>
<polygon fill="black" stroke="black" points="162,-118.1 158.5,-108.1 155,-118.1 162,-118.1"/>
</g>
<!-- Answer -->
<g id="node8" class="node">
<title>Answer</title>
<path fill="#ffff00" stroke="navy" d="M77.5,-36C77.5,-36 31.5,-36 31.5,-36 25.5,-36 19.5,-30 19.5,-24 19.5,-24 19.5,-12 19.5,-12 19.5,-6 25.5,0 31.5,0 31.5,0 77.5,0 77.5,0 83.5,0 89.5,-6 89.5,-12 89.5,-12 89.5,-24 89.5,-24 89.5,-30 83.5,-36 77.5,-36"/>
<text text-anchor="middle" x="54.5" y="-14.3" font-family="Times,serif" font-size="14.00">Answer</text>
</g>
<!-- Insights&#45;&gt;Answer -->
<g id="edge1" class="edge">
<title>Insights&#45;&gt;Answer</title>
<path fill="none" stroke="black" d="M133.06,-71.88C119.71,-62.89 103.18,-51.76 88.72,-42.03"/>
<polygon fill="black" stroke="black" points="90.29,-38.87 80.04,-36.19 86.38,-44.68 90.29,-38.87"/>
</g>
<!-- Reason -->
<g id="node9" class="node">
<title>Reason</title>
<path fill="#ffff00" stroke="navy" d="M197.5,-36C197.5,-36 119.5,-36 119.5,-36 113.5,-36 107.5,-30 107.5,-24 107.5,-24 107.5,-12 107.5,-12 107.5,-6 113.5,0 119.5,0 119.5,0 197.5,0 197.5,0 203.5,0 209.5,-6 209.5,-12 209.5,-12 209.5,-24 209.5,-24 209.5,-30 203.5,-36 197.5,-36"/>
<text text-anchor="middle" x="158.5" y="-14.3" font-family="Times,serif" font-size="14.00">Reason why</text>
</g>
<!-- Insights&#45;&gt;Reason -->
<g id="edge2" class="edge">
<title>Insights&#45;&gt;Reason</title>
<path fill="none" stroke="black" d="M158.5,-71.7C158.5,-63.98 158.5,-54.71 158.5,-46.11"/>
<polygon fill="black" stroke="black" points="162,-46.1 158.5,-36.1 155,-46.1 162,-46.1"/>
</g>
<!-- Check -->
<g id="node10" class="node">
<title>Check</title>
<path fill="#ffff00" stroke="navy" d="M275.5,-36C275.5,-36 239.5,-36 239.5,-36 233.5,-36 227.5,-30 227.5,-24 227.5,-24 227.5,-12 227.5,-12 227.5,-6 233.5,0 239.5,0 239.5,0 275.5,0 275.5,0 281.5,0 287.5,-6 287.5,-12 287.5,-12 287.5,-24 287.5,-24 287.5,-30 281.5,-36 275.5,-36"/>
<text text-anchor="middle" x="257.5" y="-14.3" font-family="Times,serif" font-size="14.00">Check</text>
</g>
<!-- Insights&#45;&gt;Check -->
<g id="edge3" class="edge">
<title>Insights&#45;&gt;Check</title>
<path fill="none" stroke="black" d="M182.72,-71.88C195.42,-62.89 211.16,-51.76 224.92,-42.03"/>
<polygon fill="black" stroke="black" points="227.04,-44.82 233.19,-36.19 223,-39.11 227.04,-44.82"/>
</g>
</g>
</svg>
