<?xml version="1.0" encoding="UTF-8" standalone="no"?>
<!DOCTYPE svg PUBLIC "-//W3C//DTD SVG 1.1//EN"
 "http://www.w3.org/Graphics/SVG/1.1/DTD/svg11.dtd">
<!-- Generated by graphviz version 2.43.0 (0)
 -->
<!-- Title: %3 Pages: 1 -->
<svg width="296pt" height="346pt"
 viewBox="0.00 0.00 296.00 346.00" xmlns="http://www.w3.org/2000/svg" xmlns:xlink="http://www.w3.org/1999/xlink">
<g id="graph0" class="graph" transform="scale(1 1) rotate(0) translate(4 342)">
<title>%3</title>
<polygon fill="white" stroke="transparent" points="-4,4 -4,-342 292,-342 292,4 -4,4"/>
<!-- Data -->
<g id="node1" class="node">
<title>Data</title>
<path fill="#f7faff" stroke="navy" d="M42,-338C42,-338 12,-338 12,-338 6,-338 0,-332 0,-326 0,-326 0,-314 0,-314 0,-308 6,-302 12,-302 12,-302 42,-302 42,-302 48,-302 54,-308 54,-314 54,-314 54,-326 54,-326 54,-332 48,-338 42,-338"/>
<text text-anchor="middle" x="27" y="-316.3" font-family="Times,serif" font-size="14.00">Data</text>
</g>
<!-- LLM -->
<g id="node5" class="node">
<title>LLM</title>
<path fill="#f7faff" stroke="navy" d="M231.5,-265C231.5,-265 40.5,-265 40.5,-265 34.5,-265 28.5,-259 28.5,-253 28.5,-253 28.5,-241 28.5,-241 28.5,-235 34.5,-229 40.5,-229 40.5,-229 231.5,-229 231.5,-229 237.5,-229 243.5,-235 243.5,-241 243.5,-241 243.5,-253 243.5,-253 243.5,-259 237.5,-265 231.5,-265"/>
<text text-anchor="middle" x="136" y="-243.3" font-family="Times,serif" font-size="14.00">LLM&#45;Based Code Generator</text>
</g>
<!-- Data&#45;&gt;LLM -->
<g id="edge4" class="edge">
<title>Data&#45;&gt;LLM</title>
<path fill="none" stroke="black" d="M53.11,-301.99C67.56,-292.58 85.71,-280.76 101.34,-270.57"/>
<polygon fill="black" stroke="black" points="103.26,-273.5 109.73,-265.11 99.44,-267.64 103.26,-273.5"/>
</g>
<!-- Logic -->
<g id="node2" class="node">
<title>Logic</title>
<path fill="#f7faff" stroke="navy" d="M115.5,-338C115.5,-338 84.5,-338 84.5,-338 78.5,-338 72.5,-332 72.5,-326 72.5,-326 72.5,-314 72.5,-314 72.5,-308 78.5,-302 84.5,-302 84.5,-302 115.5,-302 115.5,-302 121.5,-302 127.5,-308 127.5,-314 127.5,-314 127.5,-326 127.5,-326 127.5,-332 121.5,-338 115.5,-338"/>
<text text-anchor="middle" x="100" y="-316.3" font-family="Times,serif" font-size="14.00">Logic</text>
</g>
<!-- Logic&#45;&gt;LLM -->
<g id="edge5" class="edge">
<title>Logic&#45;&gt;LLM</title>
<path fill="none" stroke="black" d="M108.71,-301.81C112.92,-293.53 118.05,-283.41 122.72,-274.19"/>
<polygon fill="black" stroke="black" points="125.96,-275.53 127.37,-265.03 119.72,-272.37 125.96,-275.53"/>
</g>
<!-- Goal -->
<g id="node3" class="node">
<title>Goal</title>
<path fill="#f7faff" stroke="navy" d="M188,-338C188,-338 158,-338 158,-338 152,-338 146,-332 146,-326 146,-326 146,-314 146,-314 146,-308 152,-302 158,-302 158,-302 188,-302 188,-302 194,-302 200,-308 200,-314 200,-314 200,-326 200,-326 200,-332 194,-338 188,-338"/>
<text text-anchor="middle" x="173" y="-316.3" font-family="Times,serif" font-size="14.00">Goal</text>
</g>
<!-- Goal&#45;&gt;LLM -->
<g id="edge6" class="edge">
<title>Goal&#45;&gt;LLM</title>
<path fill="none" stroke="black" d="M164.04,-301.81C159.68,-293.44 154.34,-283.2 149.5,-273.9"/>
<polygon fill="black" stroke="black" points="152.6,-272.28 144.87,-265.03 146.39,-275.51 152.6,-272.28"/>
</g>
<!-- Prompt -->
<g id="node4" class="node">
<title>Prompt</title>
<path fill="#f7faff" stroke="navy" d="M276,-338C276,-338 230,-338 230,-338 224,-338 218,-332 218,-326 218,-326 218,-314 218,-314 218,-308 224,-302 230,-302 230,-302 276,-302 276,-302 282,-302 288,-308 288,-314 288,-314 288,-326 288,-326 288,-332 282,-338 276,-338"/>
<text text-anchor="middle" x="253" y="-316.3" font-family="Times,serif" font-size="14.00">Prompt</text>
</g>
<!-- Prompt&#45;&gt;LLM -->
<g id="edge7" class="edge">
<title>Prompt&#45;&gt;LLM</title>
<path fill="none" stroke="black" d="M224.98,-301.99C209.46,-292.58 189.98,-280.76 173.2,-270.57"/>
<polygon fill="black" stroke="black" points="174.57,-267.31 164.2,-265.11 170.93,-273.29 174.57,-267.31"/>
</g>
<!-- PythonProgram -->
<g id="node6" class="node">
<title>PythonProgram</title>
<path fill="#f7faff" stroke="navy" d="M191,-182C191,-182 81,-182 81,-182 75,-182 69,-176 69,-170 69,-170 69,-158 69,-158 69,-152 75,-146 81,-146 81,-146 191,-146 191,-146 197,-146 203,-152 203,-158 203,-158 203,-170 203,-170 203,-176 197,-182 191,-182"/>
<text text-anchor="middle" x="136" y="-160.3" font-family="Times,serif" font-size="14.00">Python Program</text>
</g>
<!-- LLM&#45;&gt;PythonProgram -->
<g id="edge8" class="edge">
<title>LLM&#45;&gt;PythonProgram</title>
<path fill="none" stroke="black" d="M136,-228.82C136,-218.19 136,-204.31 136,-192.2"/>
<polygon fill="black" stroke="black" points="139.5,-192.15 136,-182.15 132.5,-192.15 139.5,-192.15"/>
<text text-anchor="middle" x="180" y="-203" font-family="Times,serif" font-size="10.00">Synthesizes code</text>
</g>
<!-- Insights -->
<g id="node7" class="node">
<title>Insights</title>
<path fill="#f7faff" stroke="navy" d="M188.5,-109C188.5,-109 83.5,-109 83.5,-109 77.5,-109 71.5,-103 71.5,-97 71.5,-97 71.5,-85 71.5,-85 71.5,-79 77.5,-73 83.5,-73 83.5,-73 188.5,-73 188.5,-73 194.5,-73 200.5,-79 200.5,-85 200.5,-85 200.5,-97 200.5,-97 200.5,-103 194.5,-109 188.5,-109"/>
<text text-anchor="middle" x="136" y="-87.3" font-family="Times,serif" font-size="14.00">Insights Output</text>
</g>
<!-- PythonProgram&#45;&gt;Insights -->
<g id="edge9" class="edge">
<title>PythonProgram&#45;&gt;Insights</title>
<path fill="none" stroke="black" d="M136,-145.81C136,-137.79 136,-128.05 136,-119.07"/>
<polygon fill="black" stroke="black" points="139.5,-119.03 136,-109.03 132.5,-119.03 139.5,-119.03"/>
</g>
<!-- Answer -->
<g id="node8" class="node">
<title>Answer</title>
<path fill="#f7faff" stroke="navy" d="M60,-36C60,-36 14,-36 14,-36 8,-36 2,-30 2,-24 2,-24 2,-12 2,-12 2,-6 8,0 14,0 14,0 60,0 60,0 66,0 72,-6 72,-12 72,-12 72,-24 72,-24 72,-30 66,-36 60,-36"/>
<text text-anchor="middle" x="37" y="-14.3" font-family="Times,serif" font-size="14.00">Answer</text>
</g>
<!-- Insights&#45;&gt;Answer -->
<g id="edge1" class="edge">
<title>Insights&#45;&gt;Answer</title>
<path fill="none" stroke="black" d="M112.29,-72.99C99.4,-63.75 83.28,-52.19 69.27,-42.14"/>
<polygon fill="black" stroke="black" points="71.03,-39.1 60.86,-36.11 66.95,-44.79 71.03,-39.1"/>
</g>
<!-- Reasoning -->
<g id="node9" class="node">
<title>Reasoning</title>
<path fill="#f7faff" stroke="navy" d="M169.5,-36C169.5,-36 102.5,-36 102.5,-36 96.5,-36 90.5,-30 90.5,-24 90.5,-24 90.5,-12 90.5,-12 90.5,-6 96.5,0 102.5,0 102.5,0 169.5,0 169.5,0 175.5,0 181.5,-6 181.5,-12 181.5,-12 181.5,-24 181.5,-24 181.5,-30 175.5,-36 169.5,-36"/>
<text text-anchor="middle" x="136" y="-14.3" font-family="Times,serif" font-size="14.00">Reasoning</text>
</g>
<!-- Insights&#45;&gt;Reasoning -->
<g id="edge2" class="edge">
<title>Insights&#45;&gt;Reasoning</title>
<path fill="none" stroke="black" d="M136,-72.81C136,-64.79 136,-55.05 136,-46.07"/>
<polygon fill="black" stroke="black" points="139.5,-46.03 136,-36.03 132.5,-46.03 139.5,-46.03"/>
</g>
<!-- Check -->
<g id="node10" class="node">
<title>Check</title>
<path fill="#f7faff" stroke="navy" d="M248,-36C248,-36 212,-36 212,-36 206,-36 200,-30 200,-24 200,-24 200,-12 200,-12 200,-6 206,0 212,0 212,0 248,0 248,0 254,0 260,-6 260,-12 260,-12 260,-24 260,-24 260,-30 254,-36 248,-36"/>
<text text-anchor="middle" x="230" y="-14.3" font-family="Times,serif" font-size="14.00">Check</text>
</g>
<!-- Insights&#45;&gt;Check -->
<g id="edge3" class="edge">
<title>Insights&#45;&gt;Check</title>
<path fill="none" stroke="black" d="M158.75,-72.81C170.88,-63.66 185.97,-52.26 199.13,-42.32"/>
<polygon fill="black" stroke="black" points="201.58,-44.85 207.45,-36.03 197.37,-39.26 201.58,-44.85"/>
</g>
</g>
</svg>
