<svg xmlns="http://www.w3.org/2000/svg" width="2320" height="340" viewBox="0 0 2320 340" role="img" aria-label="LLM to Python infographic — larger fonts">
  <defs>
    <style>
      .box { fill: #ffffff; stroke: #111827; stroke-width: 3.2; rx: 26; ry: 26; filter: drop-shadow(0px 2px 2px rgba(0,0,0,0.05)); }
      .title { font: 800 42px "Inter", "Segoe UI", Arial, Helvetica, sans-serif; fill: #0f172a; }
      .bulletText { font: 600 32px "Inter", "Segoe UI", Arial, Helvetica, sans-serif; fill: #0b1220; }
      .arrow { stroke: #111827; stroke-width: 5; fill: none; }
    </style>
    <linearGradient id="hdrBlue" x1="0" y1="0" x2="0" y2="1">
      <stop offset="0%" stop-color="#dbeafe"/>
      <stop offset="100%" stop-color="#bfdbfe"/>
    </linearGradient>
    <linearGradient id="hdrOrange" x1="0" y1="0" x2="0" y2="1">
      <stop offset="0%" stop-color="#ffedd5"/>
      <stop offset="100%" stop-color="#fed7aa"/>
    </linearGradient>
    <linearGradient id="hdrGreen" x1="0" y1="0" x2="0" y2="1">
      <stop offset="0%" stop-color="#dcfce7"/>
      <stop offset="100%" stop-color="#bbf7d0"/>
    </linearGradient>
  </defs>
  <rect x="0" y="0" width="2320" height="340" fill="#ffffff"/>

<rect class="box" x="40" y="40" width="720" height="260" rx="26" ry="26"/>
<rect x="40" y="40" width="720" height="110" rx="26" ry="26" fill="url(#hdrBlue)"/>
<text class="title" x="74" y="114">LLM Input</text>
<circle cx="80" cy="177" r="9" fill="#2563eb"/>
<text class="bulletText" x="108" y="184">Data (e.g., RDF)</text>
<circle cx="80" cy="219" r="9" fill="#2563eb"/>
<text class="bulletText" x="108" y="226">Logic (e.g., N3 and RDF Surfaces)</text>
<circle cx="80" cy="261" r="9" fill="#2563eb"/>
<text class="bulletText" x="108" y="268">Goal</text>
<rect class="box" x="800" y="40" width="720" height="260" rx="26" ry="26"/>
<rect x="800" y="40" width="720" height="110" rx="26" ry="26" fill="url(#hdrOrange)"/>
<text class="title" x="834" y="114">LLM (e.g., GPT-5 Thinking)</text>
<circle cx="840" cy="177" r="9" fill="#d97706"/>
<text class="bulletText" x="868" y="184">Translates Data + Logic + Goal</text>
<circle cx="840" cy="219" r="9" fill="#d97706"/>
<text class="bulletText" x="868" y="226">Constructs proof strategy</text>
<circle cx="840" cy="261" r="9" fill="#d97706"/>
<text class="bulletText" x="868" y="268">Synthesizes self-contained Python code</text>
<rect class="box" x="1560" y="40" width="720" height="260" rx="26" ry="26"/>
<rect x="1560" y="40" width="720" height="110" rx="26" ry="26" fill="url(#hdrGreen)"/>
<text class="title" x="1594" y="114">Python Output</text>
<circle cx="1600" cy="177" r="9" fill="#16a34a"/>
<text class="bulletText" x="1628" y="184">Answer</text>
<circle cx="1600" cy="219" r="9" fill="#16a34a"/>
<text class="bulletText" x="1628" y="226">Reason why</text>
<circle cx="1600" cy="261" r="9" fill="#16a34a"/>
<text class="bulletText" x="1628" y="268">Check (harness)</text>
<line class="arrow" x1="760" y1="170.0" x2="768" y2="170.0"/>
<path d="M 768 158.0 L 800 170.0 L 768 182.0 Z" fill="#111827"/>
<line class="arrow" x1="1520" y1="170.0" x2="1528" y2="170.0"/>
<path d="M 1528 158.0 L 1560 170.0 L 1528 182.0 Z" fill="#111827"/>
</svg>